:FULLY-SPECIFIED
:FORCE-ALL-JOINTS-BE-3DOF
:DEGREES
1020
root 0.247504 13.5561 -35.3857 372.299 -28.1861 342.296
lfemur -70.0415 36.0666 -4.12793
ltibia 82.3466 -0 0
lfoot -12.6443 -8.38668 0.000312921
ltoes -6.1533 0 0
rfemur 10.3112 -8.69911 8.65122
rtibia 36.5148 -0 0
rfoot -22.6087 -26.1279 -4.50662e-05
rtoes -31.4526 0 0
lowerback 10.3174 -0.648967 5.64248
upperback -1.64721 0.363468 8.00205
thorax -7.61545 0.0890398 5.32546
lowerneck -6.26972 8.09871 3.76809
upperneck 8.25879 10.5737 -0.932698
head 4.10263 5.30098 -0.361289
lclavicle -1.3366e-14 -3.01961e-14 6.48883e-32
lhumerus 83.8753 -11.1343 27.1395
lradius 94.975 -0 0
lwrist 9.51674 0 0
lhand -36.311 30.9948 0.000996237
lfingers 7.12502 -0 0
lthumb -8.68547 59.2096 -7.96838e-05
rclavicle 2.86263e-16 -3.20798e-14 -2.29647e-30
rhumerus -77.5577 23.1903 -95.1068
rradius 112.185 -0 0
rwrist -63.1699 0 0
rhand -10.0627 -25.4972 1.77918e-05
rfingers 7.12502 -0 0
rthumb 15.765 -54.5833 -2.47304e-05
1021
root 0.246428 13.5528 -35.3769 372.275 -28.1762 342.313
lfemur -70.0694 36.093 -4.15362
ltibia 82.4262 -0 0
lfoot -12.7056 -8.39833 0.000384852
ltoes -6.17622 0 0
rfemur 10.3538 -8.69304 8.63369
rtibia 36.5028 -0 0
rfoot -22.6038 -26.1429 -4.37775e-05
rtoes -31.4462 0 0
lowerback 10.2874 -0.789171 5.47745
upperback -1.81465 0.173717 8.11367
thorax -7.7717 0.00554305 5.58204
lowerneck -5.30263 8.21476 3.61802
upperneck 8.01124 10.783 -0.998588
head 3.82443 5.4032 -0.397208
lclavicle -1.31828e-14 -3.05061e-14 1.67835e-32
lhumerus 83.8506 -10.7509 27.2835
lradius 94.786 -0 0
lwrist 9.3482 0 0
lhand -36.3333 30.9384 0.000260196
lfingers 7.12502 -0 0
lthumb -8.69228 59.2333 -0.000134689
rclavicle 4.52775e-15 -3.12649e-14 -2.91938e-30
rhumerus -77.5812 23.2195 -95.1224
rradius 112.166 -0 0
rwrist -63.1974 0 0
rhand -10.0593 -25.4894 2.41723e-05
rfingers 7.12502 -0 0
rthumb 15.7625 -54.5598 -1.74799e-05
1022
root 0.245708 13.5496 -35.3692 372.285 -28.1519 342.329
lfemur -70.0904 36.1128 -4.17297
ltibia 82.4953 -0 0
lfoot -12.772 -8.41096 0.000448742
ltoes -6.19046 0 0
rfemur 10.3889 -8.68802 8.61923
rtibia 36.4894 -0 0
rfoot -22.599 -26.1576 -4.12661e-05
rtoes -31.444 0 0
lowerback 10.2589 -0.83997 5.40937
upperback -1.87143 0.101125 8.14679
thorax -7.81317 -0.0261421 5.67166
lowerneck -5.02538 8.26271 3.52909
upperneck 7.94613 10.8638 -0.995879
head 3.74332 5.44243 -0.392086
lclavicle -1.31198e-14 -3.06128e-14 0
lhumerus 83.822 -10.2859 27.4576
lradius 94.6442 -0 0
lwrist 9.1938 0 0
lhand -36.3411 30.9188 0
lfingers 7.12502 -0 0
lthumb -8.70069 59.2626 -0.000198649
rclavicle 9.2045e-15 -3.03664e-14 -3.53629e-30
rhumerus -77.6034 23.2471 -95.1371
rradius 112.146 -0 0
rwrist -63.2249 0 0
rhand -10.0554 -25.4806 3.08437e-05
rfingers 7.12502 -0 0
rthumb 15.7604 -54.5403 -1.07035e-05
1023
root 0.244334 13.5456 -35.3606 372.3 -28.1567 342.324
lfemur -70.1036 36.1253 -4.18517
ltibia 82.5521 -0 0
lfoot -12.8425 -8.42436 0.000500484
ltoes -6.19536 0 0
rfemur 10.4153 -8.68423 8.60831
rtibia 36.475 -0 0
rfoot -22.5943 -26.1719 -3.7662e-05
rtoes -31.4422 0 0
lowerback 10.2051 -0.811759 5.42256
upperback -1.86025 0.132276 8.12126
thorax -7.77132 -0.0119926 5.62792
lowerneck -5.04604 8.24865 3.51057
upperneck 7.94516 10.844 -0.975884
head 3.7438 5.43277 -0.382848
lclavicle -1.31724e-14 -3.05869e-14 3.64075e-33
lhumerus 83.791 -9.75189 27.657
lradius 94.5551 -0 0
lwrist 9.05611 0 0
lhand -36.3359 30.9236 2.94985e-05
lfingers 7.12502 -0 0
lthumb -8.71053 59.2969 -0.000268051
rclavicle 1.42585e-14 -2.93954e-14 -4.1205e-30
rhumerus -77.6241 23.2728 -95.1508
rradius 112.124 -0 0
rwrist -63.2522 0 0
rhand -10.0511 -25.4708 3.75201e-05
rfingers 7.12502 -0 0
rthumb 15.7588 -54.5256 -5.10531e-06
1024
root 0.24394 13.5419 -35.3533 372.29 -28.1712 342.361
lfemur -70.1082 36.1297 -4.18941
ltibia 82.5949 -0 0
lfoot -12.9158 -8.4383 0.000536842
ltoes -6.1935 0 0
rfemur 10.4321 -8.68184 8.60142
rtibia 36.4598 -0 0
rfoot -22.5899 -26.1854 -3.3155e-05
rtoes -31.437 0 0
lowerback 10.1852 -0.849302 5.34252
upperback -1.88584 0.0728161 8.13821
thorax -7.7842 -0.0370324 5.70279
lowerneck -4.88081 8.30708 3.43768
upperneck 7.91975 10.9345 -0.983165
head 3.70061 5.47614 -0.376808
lclavicle -1.33256e-14 -3.05115e-14 1.40967e-32
lhumerus 83.759 -9.16129 27.8767
lradius 94.5241 0 0
lwrist 8.93769 0 0
lhand -36.3211 30.9372 0.000111544
lfingers 7.12502 -0 0
lthumb -8.72164 59.3355 -0.000339359
rclavicle 1.96317e-14 -2.83631e-14 -4.64768e-30
rhumerus -77.643 23.2962 -95.1633
rradius 112.102 -0 0
rwrist -63.2789 0 0
rhand -10.0465 -25.4602 4.39285e-05
rfingers 7.12502 -0 0
rthumb 15.7578 -54.5163 -1.35013e-06
1025
root 0.24242 13.5374 -35.3458 372.303 -28.1907 342.344
lfemur -70.108 36.1302 -4.18724
ltibia 82.6218 -0 0
lfoot -12.9908 -8.45256 0.000555589
ltoes -6.18811 0 0
rfemur 10.4379 -8.681 8.59902
rtibia 36.4441 -0 0
rfoot -22.5857 -26.1981 -2.79879e-05
rtoes -31.4288 0 0
lowerback 10.1627 -0.81763 5.34497
upperback -1.87423 0.111007 8.11861
thorax -7.76054 -0.018818 5.67172
lowerneck -4.91514 8.29554 3.44113
upperneck 7.9404 10.9179 -0.983958
head 3.71442 5.46774 -0.376345
lclavicle -1.3572e-14 -3.03902e-14 3.0501e-32
lhumerus 83.7271 -8.52664 28.1121
lradius 94.4938 -0 0
lwrist 8.84111 0 0
lhand -36.2976 30.9587 0.000233857
lfingers 7.12502 -0 0
lthumb -8.73386 59.3781 -0.000409147
rclavicle 2.5266e-14 -2.72806e-14 -5.0965e-30
rhumerus -77.6597 23.317 -95.1745
rradius 112.08 -0 0
rwrist -63.3049 0 0
rhand -10.0416 -25.4489 4.98169e-05
rfingers 7.12502 -0 0
rthumb 15.7575 -54.513 0
1026
root 0.241835 13.5333 -35.339 372.306 -28.1668 342.36
lfemur -70.1073 36.1316 -4.18094
ltibia 82.6312 0 0
lfoot -13.0664 -8.46693 0.000555589
ltoes -6.17947 0 0
rfemur 10.4391 -8.68285 8.59627
rtibia 36.428 -0 0
rfoot -22.5819 -26.2097 -2.24485e-05
rtoes -31.4178 0 0
lowerback 10.1503 -0.830868 5.30728
upperback -1.88432 0.0884574 8.12446
thorax -7.76301 -0.0279407 5.70346
lowerneck -4.86763 8.32399 3.40872
upperneck 7.93106 10.9617 -0.999513
head 3.70187 5.48813 -0.376144
lclavicle -1.39046e-14 -3.02264e-14 5.18116e-32
lhumerus 83.6966 -7.86047 28.3582
lradius 94.4072 -0 0
lwrist 8.76895 0 0
lhand -36.2667 30.9871 0.000381914
lfingers 7.12502 -0 0
lthumb -8.74704 59.424 -0.000474212
rclavicle 3.11035e-14 -2.61591e-14 -5.44923e-30
rhumerus -77.6741 23.3348 -95.184
rradius 112.056 -0 0
rwrist -63.33 0 0
rhand -10.0364 -25.437 5.49609e-05
rfingers 7.12502 -0 0
rthumb 15.7594 -54.5137 -1.67156e-06
